<svg width="24" height="24" fill="none" xmlns="http://www.w3.org/2000/svg"><path d="M18.991 16.992h2c.6 0 1-.4 1-1v-2.998c0-.9-.7-1.7-1.5-1.899-1.8-.5-4.498-1.1-4.498-1.1s-1.3-1.399-2.2-2.298c-.499-.4-1.099-.7-1.798-.7H4.998c-.6 0-1.1.4-1.4.9L2.2 10.794c-.132.386-.2.791-.2 1.2v3.998c0 .6.4 1 1 1h1.999" stroke="#C27AFF" stroke-width="1.999" stroke-linecap="round" stroke-linejoin="round"/><path d="M6.997 18.991a2 2 0 100-3.998 2 2 0 000 3.998zM8.996 16.992h5.997M16.992 18.991a2 2 0 100-3.998 2 2 0 000 3.998z" stroke="#C27AFF" stroke-width="1.999" stroke-linecap="round" stroke-linejoin="round"/></svg>