<svg width="32" height="32" fill="none" xmlns="http://www.w3.org/2000/svg"><path d="M14.684 3.75a1.333 1.333 0 012.621 0l1.4 7.41a2.666 2.666 0 002.126 2.124l7.408 1.4a1.333 1.333 0 010 2.621l-7.409 1.401a2.665 2.665 0 00-2.124 2.125l-1.401 7.408a1.333 1.333 0 01-2.62 0l-1.401-7.408a2.666 2.666 0 00-2.125-2.125l-7.408-1.4a1.333 1.333 0 010-2.621l7.408-1.401a2.666 2.666 0 002.125-2.125l1.4-7.408zM26.658 2.666v5.331M29.324 5.331h-5.332M5.332 29.324a2.666 2.666 0 100-5.332 2.666 2.666 0 000 5.332z" stroke="#fff" stroke-width="2.666" stroke-linecap="round" stroke-linejoin="round"/></svg>